<?xml version="1.0" standalone="no"?>
<!DOCTYPE svg PUBLIC "-//W3C//DTD SVG 20010904//EN"
 "http://www.w3.org/TR/2001/REC-SVG-20010904/DTD/svg10.dtd">
<svg version="1.0" xmlns="http://www.w3.org/2000/svg"
 width="512.000000pt" height="512.000000pt" viewBox="0 0 512.000000 512.000000"
 preserveAspectRatio="xMidYMid meet">
<metadata>
Created by potrace 1.14, written by Peter Selinger 2001-2017
</metadata>
<g transform="translate(0.000000,512.000000) scale(0.100000,-0.100000)"
fill="#000000" stroke="none">
<path d="M2480 5099 c-206 -39 -387 -280 -522 -694 -33 -104 -81 -283 -99
-370 -6 -33 -13 -67 -14 -75 -2 -8 -4 -23 -4 -34 -1 -13 -6 -17 -18 -13 -10 3
-65 19 -123 37 -58 18 -112 33 -120 35 -8 2 -62 16 -120 30 -155 38 -295 61
-437 70 l-82 5 24 -55 c14 -31 25 -66 25 -78 0 -37 12 -45 85 -51 39 -4 95
-11 125 -16 30 -5 71 -12 90 -15 152 -26 526 -137 516 -154 -2 -3 -7 -31 -11
-61 -3 -30 -8 -66 -10 -80 -2 -14 -7 -50 -10 -80 -3 -30 -8 -71 -10 -90 -4
-33 -17 -199 -18 -228 0 -8 -55 -50 -121 -95 -129 -86 -349 -247 -354 -259 -2
-5 -8 -8 -14 -8 -26 0 -246 203 -370 342 -92 103 -109 123 -169 211 l-54 78
-98 2 c-53 1 -97 1 -97 -1 0 -8 45 -89 74 -135 33 -51 118 -164 173 -229 43
-51 271 -277 338 -334 l59 -51 -39 -34 c-363 -316 -595 -618 -655 -854 -68
-266 81 -453 390 -491 61 -7 240 -8 286 0 16 2 54 7 84 11 102 12 304 57 460
102 217 64 197 63 205 11 12 -79 73 -321 105 -423 49 -151 106 -288 173 -413
l18 -33 38 58 c21 32 47 66 58 76 l21 18 -44 94 c-71 152 -176 501 -199 660
-4 22 -8 47 -11 56 -3 11 24 26 113 61 65 26 187 78 271 116 l152 70 138 -63
c75 -35 193 -86 261 -113 68 -28 127 -54 132 -59 5 -5 5 -24 -1 -43 -5 -19
-11 -48 -13 -65 -7 -46 -46 -199 -78 -310 -36 -124 -70 -215 -121 -326 l-39
-86 31 -33 c17 -19 42 -54 54 -78 l22 -44 25 39 c93 142 204 460 269 773 12
58 24 108 27 113 2 4 12 3 22 -3 51 -27 438 -128 556 -145 23 -3 50 -7 60 -9
50 -10 178 -18 262 -18 81 0 121 4 197 18 140 26 271 125 311 234 24 69 25
182 0 265 -35 123 -133 289 -259 442 -57 68 -316 328 -386 386 l-45 38 75 67
c251 224 440 443 539 624 l31 56 -98 4 c-53 2 -99 1 -100 -4 -7 -16 -118 -168
-162 -220 -96 -115 -400 -408 -422 -408 -5 0 -43 27 -86 60 -112 87 -167 126
-296 213 l-116 78 -2 47 c0 26 -2 58 -3 72 -2 14 -6 59 -9 100 -4 41 -11 104
-16 140 -5 36 -12 92 -15 125 -4 33 -8 64 -9 69 -2 17 297 107 464 140 140 28
189 35 277 42 48 4 89 7 90 8 1 1 5 16 8 34 3 18 14 56 25 85 11 29 20 53 20
54 0 4 -169 -6 -223 -12 -155 -18 -378 -69 -591 -135 -54 -16 -100 -30 -101
-30 -2 0 -6 19 -10 43 -4 23 -20 98 -37 167 -16 69 -31 133 -33 143 -2 10 -27
87 -55 169 -122 361 -272 579 -445 646 -63 24 -128 32 -185 21z m165 -207
c161 -113 330 -504 419 -970 14 -72 14 -74 -8 -82 -11 -5 -71 -30 -132 -54
-61 -25 -171 -72 -243 -106 -73 -33 -136 -60 -141 -60 -8 0 -59 22 -204 90
-39 17 -126 54 -195 82 -70 28 -129 53 -133 57 -10 9 63 332 107 471 102 320
234 539 360 597 45 20 122 9 170 -25z m-549 -1271 c65 -27 147 -61 182 -76
l63 -28 -103 -57 c-129 -71 -169 -94 -239 -136 -31 -19 -60 -34 -63 -34 -6 0
0 114 9 170 2 14 6 48 9 75 8 66 18 135 20 135 1 0 56 -22 122 -49z m1015 22
c0 -16 2 -37 5 -48 5 -27 22 -166 29 -244 7 -74 11 -74 -101 -6 -41 25 -114
67 -162 92 -48 26 -99 54 -115 63 l-27 17 122 53 c68 29 137 58 153 65 17 6
41 17 55 23 37 16 40 15 41 -15z m-463 -279 c140 -74 404 -224 467 -266 58
-39 52 -5 56 -328 3 -290 -2 -417 -15 -434 -6 -8 -27 -23 -46 -34 -19 -11 -66
-39 -105 -62 -94 -58 -271 -156 -378 -210 l-88 -45 -145 75 c-80 41 -220 120
-312 175 -153 92 -167 103 -169 130 -4 41 -4 644 -1 675 3 29 48 60 258 180
122 70 360 199 368 200 2 0 52 -25 110 -56z m-915 -663 c1 -133 0 -241 -3
-241 -5 0 -75 46 -95 62 -5 5 -63 47 -128 94 l-118 86 98 72 c164 121 238 173
241 171 2 -2 4 -111 5 -244z m1682 201 c116 -80 266 -195 263 -203 -5 -14
-298 -227 -320 -232 -6 -1 -10 82 -11 240 -1 158 1 239 8 235 6 -3 33 -21 60
-40z m-1803 -576 c70 -48 129 -90 132 -94 2 -4 7 -48 11 -97 10 -145 13 -173
31 -318 11 -83 14 -141 8 -146 -24 -22 -358 -114 -524 -145 -139 -25 -150 -26
-280 -31 -182 -6 -300 21 -368 85 -147 139 81 529 546 936 l84 73 116 -88 c65
-48 174 -127 244 -175z m2330 163 c474 -429 673 -804 493 -928 -72 -49 -154
-66 -315 -65 -160 0 -292 18 -473 65 -45 11 -89 22 -98 24 -9 2 -75 22 -147
44 -85 27 -130 46 -127 54 2 7 6 35 9 62 3 28 10 84 15 125 14 101 19 159 26
260 3 47 8 92 11 100 3 8 57 50 122 93 64 42 173 119 242 171 107 80 127 92
142 81 10 -6 55 -45 100 -86z m-1695 -550 c46 -24 83 -47 83 -50 0 -7 -75 -41
-241 -109 l-117 -48 -7 57 c-3 31 -8 67 -10 81 -8 59 -15 119 -21 183 l-6 68
118 -69 c66 -38 156 -89 201 -113z m898 114 c-4 -38 -8 -79 -10 -93 -2 -14 -6
-52 -10 -85 -3 -33 -8 -69 -10 -80 -2 -11 -4 -28 -4 -37 -1 -26 -14 -23 -136
28 -61 25 -135 56 -165 69 -30 13 -56 27 -57 32 -2 5 32 28 74 50 43 23 132
73 198 112 66 39 121 70 123 71 1 0 0 -30 -3 -67z"/>
<path d="M2460 3055 c-233 -48 -354 -304 -244 -515 46 -87 135 -157 236 -183
173 -45 373 70 424 242 77 266 -147 512 -416 456z m150 -181 c111 -55 142
-199 61 -288 -40 -44 -103 -69 -157 -61 -138 18 -207 168 -131 283 46 71 154
102 227 66z"/>
<path d="M472 4245 c-99 -28 -163 -75 -217 -160 -107 -168 -48 -405 126 -500
109 -59 220 -65 324 -16 74 34 114 68 154 127 98 148 72 349 -60 468 -86 77
-220 111 -327 81z m176 -189 c34 -18 76 -68 87 -106 32 -102 -40 -216 -147
-235 -77 -14 -169 39 -200 115 -13 32 -12 99 2 136 37 96 162 140 258 90z"/>
<path d="M4459 4240 c-70 -21 -104 -43 -161 -103 -131 -136 -126 -357 10 -493
128 -129 324 -144 467 -36 92 69 146 175 146 285 0 243 -233 418 -462 347z
m169 -175 c71 -30 109 -82 115 -159 15 -179 -225 -264 -328 -115 -103 148 48
342 213 274z"/>
<path d="M2488 729 c-242 -39 -376 -296 -268 -515 74 -152 246 -232 406 -190
246 64 352 339 213 549 -74 112 -221 177 -351 156z m151 -204 c52 -32 84 -94
84 -157 -1 -57 -24 -99 -76 -142 -34 -27 -46 -31 -100 -31 -73 0 -109 16 -150
68 -38 46 -49 135 -24 183 54 104 172 139 266 79z"/>
</g>
</svg>
